<?xml version="1.0" encoding="UTF-8"?>
<svg version="1.1" xmlns="http://www.w3.org/2000/svg" width="610" height="380">
<path d="M0 0 C201.3 0 402.6 0 610 0 C610 125.4 610 250.8 610 380 C408.7 380 207.4 380 0 380 C0 254.6 0 129.2 0 0 Z " fill="#FEFEFE" transform="translate(0,0)"/>
<path d="M0 0 C0.97195313 0.51949219 1.94390625 1.03898437 2.9453125 1.57421875 C3.62335938 2.04472656 4.30140625 2.51523437 5 3 C5 3.99 5 4.98 5 6 C-1.17715556 5.33889974 -6.92989586 4.09406404 -12.91210938 2.4609375 C-32.58560417 -2.71324955 -55.31129557 -1.46249754 -75 3 C-76.05316406 3.2165625 -77.10632813 3.433125 -78.19140625 3.65625 C-112.75785996 11.38882553 -146.90729324 33.91458986 -166.125 63.8671875 C-166.74375 64.90101562 -167.3625 65.93484375 -168 67 C-168.680625 68.11632812 -169.36125 69.23265625 -170.0625 70.3828125 C-190.77970055 105.07400618 -198.16557187 145.44409947 -188.609375 185.12890625 C-182.91970119 206.6648207 -174.09682452 225.44054077 -160.30859375 242.90234375 C-158 246 -158 246 -158 248 C-157.34 248 -156.68 248 -156 248 C-155.46375 248.845625 -154.9275 249.69125 -154.375 250.5625 C-152.14209164 254.08077259 -149.35860661 256.4994126 -146.1796875 259.16015625 C-144.75744637 260.36065011 -143.36444365 261.5969245 -142.0078125 262.87109375 C-124.5720014 279.22127888 -102.06781999 290.37431227 -79 296 C-78.30696777 296.16967285 -77.61393555 296.3393457 -76.89990234 296.51416016 C-51.86745403 302.50245957 -24.6175416 302.05993855 0.06640625 294.55078125 C2 294 2 294 4 294 C3.62961791 296.45447235 3.36568103 297.68260116 1.4597168 299.33691406 C0.46452026 299.92037598 0.46452026 299.92037598 -0.55078125 300.515625 C-1.30214355 300.9583374 -2.05350586 301.4010498 -2.82763672 301.85717773 C-3.6476416 302.31680908 -4.46764648 302.77644043 -5.3125 303.25 C-6.15828613 303.73090088 -7.00407227 304.21180176 -7.87548828 304.70727539 C-20.80732559 311.86847972 -34.74747995 317.12722221 -49 321 C-50.24910156 321.34804688 -51.49820313 321.69609375 -52.78515625 322.0546875 C-96.26980939 333.81535802 -142.94675663 325.58262809 -182 304 C-221.42403274 281.01104996 -251.28583961 243.96165458 -264 200 C-264.53367187 198.27716797 -264.53367187 198.27716797 -265.078125 196.51953125 C-272.00526511 172.81733915 -273.19548998 147.29666665 -269 123 C-268.81082299 121.61125355 -268.62614313 120.22188913 -268.4453125 118.83203125 C-262.46566644 75.1844853 -235.91376645 35.53262667 -201.625 8.6875 C-141.33365151 -35.52615556 -63.96637456 -38.15406106 0 0 Z " fill="#017944" transform="translate(393,41)"/>
<path d="M0 0 C0.55429687 1.19238281 1.10859375 2.38476562 1.6796875 3.61328125 C2.41133032 5.1797473 3.14310821 6.74615026 3.875 8.3125 C4.23980469 9.09818359 4.60460937 9.88386719 4.98046875 10.69335938 C5.33496094 11.45068359 5.68945312 12.20800781 6.0546875 12.98828125 C6.37937012 13.68477783 6.70405273 14.38127441 7.03857422 15.09887695 C8.07423509 17.240819 8.07423509 17.240819 10 20 C10 21.32 10 22.64 10 24 C7.04049858 22.62594577 4.58504604 20.98223068 2 19 C1.98541748 20.13429443 1.97083496 21.26858887 1.95581055 22.43725586 C1.8974506 26.68121475 1.82022272 30.9246638 1.73754883 35.16821289 C1.70447569 36.99820628 1.67639001 38.82829737 1.65356445 40.65844727 C1.61969193 43.30266613 1.56736359 45.94600379 1.51171875 48.58984375 C1.50213387 49.79978249 1.50213387 49.79978249 1.49235535 51.03416443 C1.34566414 56.81557409 0.05264602 61.61427802 -2 67 C-2.33 67.99 -2.66 68.98 -3 70 C-3.66 70 -4.32 70 -5 70 C-5.185625 70.680625 -5.37125 71.36125 -5.5625 72.0625 C-8.03306504 77.11104595 -11.88895405 80.96693496 -16.9375 83.4375 C-17.618125 83.623125 -18.29875 83.80875 -19 84 C-18.84152588 83.00742188 -18.68305176 82.01484375 -18.51977539 80.9921875 C-17.66066556 74.07313132 -17.76241423 67.08711616 -17.68359375 60.125 C-17.66299047 58.5894316 -17.64199319 57.05386844 -17.62062073 55.51831055 C-17.56574815 51.50055213 -17.51618718 47.48274553 -17.46777344 43.46490479 C-17.41730219 39.35546645 -17.36175065 35.24609703 -17.30664062 31.13671875 C-17.19948569 23.09120432 -17.09794824 15.04563176 -17 7 C-14.9219935 5.82286337 -12.83848217 4.65828026 -10.75 3.5 C-10.16347656 3.16613281 -9.57695312 2.83226563 -8.97265625 2.48828125 C-5.61417893 0.63923194 -3.93354216 0 0 0 Z " fill="#B19E76" transform="translate(374,94)"/>
<path d="M0 0 C0 0.99 0 1.98 0 3 C-1.134375 3.639375 -2.26875 4.27875 -3.4375 4.9375 C-9.56679929 8.5372472 -13.00128395 14.27344369 -17 20 C-18.30951184 21.79385184 -19.62191726 23.5855957 -20.9375 25.375 C-23.48236618 28.88360248 -26.00554018 32.40660869 -28.50805664 35.94555664 C-29.33884647 37.11081817 -30.17797446 38.27017784 -31.02514648 39.42358398 C-33.41960039 42.69380593 -35.61313755 45.99139376 -37.671875 49.484375 C-44.37492704 60.31463888 -44.37492704 60.31463888 -49.29101562 61.59814453 C-54.67580346 62.00508489 -59.75407754 61.16576055 -65 60 C-64.27643663 50.88310149 -62.65707093 41.98361723 -61 33 C-59.046875 33.7734375 -59.046875 33.7734375 -57 35 C-56.25 38.625 -56.25 38.625 -56 42 C-55.34 42 -54.68 42 -54 42 C-53.78601563 41.33226562 -53.57203125 40.66453125 -53.3515625 39.9765625 C-51.54691306 36.00216114 -49.03626187 32.81566647 -46.375 29.375 C-45.28285015 27.9486849 -44.19170682 26.52159853 -43.1015625 25.09375 C-42.56950195 24.39765625 -42.03744141 23.7015625 -41.48925781 22.984375 C-40.18956419 21.25258651 -38.93665456 19.50323344 -37.7109375 17.71875 C-31.49676585 8.70696322 -24.72215703 2.60271184 -13.6875 0.3125 C-9.11320278 -0.07515231 -4.58722515 -0.08306846 0 0 Z " fill="#B19F78" transform="translate(430,227)"/>
<path d="M0 0 C3.30569982 2.20379988 3.33089768 2.37583772 4.1875 5.9375 C6.1310902 12.22912187 10.04363035 16.82783594 14 22 C15.643118 24.25801889 17.25918442 26.53489432 18.875 28.8125 C19.72505716 30.00405128 20.57531937 31.19545631 21.42578125 32.38671875 C23.13424056 34.78322652 24.83950798 37.1819685 26.54296875 39.58203125 C26.9603833 40.16879639 27.37779785 40.75556152 27.80786133 41.36010742 C28.63911715 42.52942992 29.46840884 43.70015137 30.2956543 44.87231445 C32.34525487 47.75903564 34.43965987 50.58106285 36.6640625 53.3359375 C37.0880835 53.86944824 37.51210449 54.40295898 37.94897461 54.95263672 C39.11261262 56.40643875 40.29591011 57.84444292 41.48046875 59.28125 C43 62 43 62 42.9296875 64.9765625 C41.92952756 68.22918348 40.62873864 70.92432832 38.9375 73.875 C38.38964844 74.84179688 37.84179688 75.80859375 37.27734375 76.8046875 C36.64505859 77.89136719 36.64505859 77.89136719 36 79 C32.38606692 78.41584531 29.57523816 77.44519602 26.35546875 75.71484375 C25.51435547 75.26689453 24.67324219 74.81894531 23.80664062 74.35742188 C22.94232422 73.88884766 22.07800781 73.42027344 21.1875 72.9375 C20.30384766 72.46505859 19.42019531 71.99261719 18.50976562 71.50585938 C16.33668422 70.34296716 14.16697716 69.17421625 12 68 C12 67.34 12 66.68 12 66 C15.63 66 19.26 66 23 66 C19.64957779 61.16915868 16.27289441 56.36472033 12.81640625 51.609375 C12.25074951 50.83062012 11.68509277 50.05186523 11.10229492 49.24951172 C9.973233 47.6973907 8.84197555 46.14686377 7.70825195 44.59814453 C-0.50545854 33.30290203 -5.47098072 24.50455406 -4 10 C-2.97090493 6.4921281 -1.64831375 3.25983479 0 0 Z " fill="#B19F77" transform="translate(444,174)"/>
<path d="M0 0 C-0.8125 1.9375 -0.8125 1.9375 -2 4 C-2.99 4.33 -3.98 4.66 -5 5 C-5.33 5.99 -5.66 6.98 -6 8 C-5.32839844 8.1959375 -4.65679687 8.391875 -3.96484375 8.59375 C3.65399563 10.87448643 11.21234412 13.34011693 18.75 15.875 C19.71945557 16.19017578 20.68891113 16.50535156 21.68774414 16.83007812 C32.52906236 20.52562439 40.71876201 25.72144122 46.25 35.9375 C48.01932978 39.64025063 48.66038077 42.92456926 49 47 C47.68 47 46.36 47 45 47 C44.443125 46.401875 43.88625 45.80375 43.3125 45.1875 C40.04744329 42.09893284 36.20835546 41.33116228 32 40 C29.27859622 39.10562475 26.56135099 38.19882323 23.84375 37.29296875 C22.3099378 36.78307686 20.77608268 36.27331407 19.2421875 35.76367188 C18.46069336 35.50384521 17.67919922 35.24401855 16.87402344 34.97631836 C15.3058471 34.45525936 13.73749094 33.93474119 12.16894531 33.41479492 C3.57908299 30.56689177 -4.99483068 27.6806086 -13.53125 24.67578125 C-14.61508972 24.29500679 -14.61508972 24.29500679 -15.7208252 23.90653992 C-20.74895919 22.12552041 -20.74895919 22.12552041 -23 21 C-23.8515625 17.98046875 -23.8515625 17.98046875 -24.625 14.1875 C-24.88539063 12.94355469 -25.14578125 11.69960937 -25.4140625 10.41796875 C-26 7 -26 7 -26 3 C-22.22957855 2.49686083 -18.45859978 1.99802745 -14.6875 1.5 C-13.61564453 1.35691406 -12.54378906 1.21382812 -11.43945312 1.06640625 C-10.41142578 0.93105469 -9.38339844 0.79570312 -8.32421875 0.65625 C-7.37635498 0.53056641 -6.42849121 0.40488281 -5.4519043 0.27539062 C-3 0 -3 0 0 0 Z " fill="#B19E77" transform="translate(325,183)"/>
<path d="M0 0 C0.57621094 0.51820312 1.15242188 1.03640625 1.74609375 1.5703125 C2.32488281 2.08335938 2.90367187 2.59640625 3.5 3.125 C4.05558594 3.64320313 4.61117187 4.16140625 5.18359375 4.6953125 C5.7559375 5.20964844 6.32828125 5.72398437 6.91796875 6.25390625 C7.335625 6.72957031 7.75328125 7.20523438 8.18359375 7.6953125 C7.87109375 9.8828125 7.87109375 9.8828125 7.18359375 11.6953125 C6.52359375 11.6953125 5.86359375 11.6953125 5.18359375 11.6953125 C4.80460937 12.57896484 4.80460937 12.57896484 4.41796875 13.48046875 C3.03887749 15.95497743 1.5972178 17.31721325 -0.56640625 19.1328125 C-1.62601563 20.03 -1.62601563 20.03 -2.70703125 20.9453125 C-3.75117188 21.8115625 -3.75117188 21.8115625 -4.81640625 22.6953125 C-5.43 23.2109375 -6.04359375 23.7265625 -6.67578125 24.2578125 C-8.05063219 25.41006853 -9.43267588 26.55373494 -10.81640625 27.6953125 C-10.48640625 24.3953125 -10.15640625 21.0953125 -9.81640625 17.6953125 C-11.38648438 18.22640625 -12.9565625 18.7575 -14.57421875 19.3046875 C-20.97906245 21.46309636 -27.39361439 23.59093093 -33.81640625 25.6953125 C-34.59177734 25.94990234 -35.36714844 26.20449219 -36.16601562 26.46679688 C-47.23204541 30.04793188 -56.89226244 31.53554853 -67.81640625 26.6953125 C-71.34699426 24.60597822 -74.73684185 22.41450234 -77.81640625 19.6953125 C-77.81640625 19.0353125 -77.81640625 18.3753125 -77.81640625 17.6953125 C-77.15898437 17.69273437 -76.5015625 17.69015625 -75.82421875 17.6875 C-66.55782877 17.31081748 -58.66250133 14.49483279 -50.01757812 11.44433594 C-46.77232796 10.34002943 -43.49535973 9.42242623 -40.19140625 8.5078125 C-35.27694786 7.13672939 -30.55599435 5.57062197 -25.81640625 3.6953125 C-5.65456956 -4.06156179 -5.65456956 -4.06156179 0 0 Z " fill="#B19F77" transform="translate(475.81640625,125.3046875)"/>
<path d="M0 0 C-0.36007786 2.59775404 -0.6584181 3.71789342 -2.71484375 5.41625977 C-3.44832031 5.83705811 -4.18179687 6.25785645 -4.9375 6.69140625 C-5.75089844 7.16126953 -6.56429688 7.63113281 -7.40234375 8.11523438 C-8.68818359 8.83163086 -8.68818359 8.83163086 -10 9.5625 C-10.82628906 10.04396484 -11.65257812 10.52542969 -12.50390625 11.02148438 C-17.83907006 14.0564328 -23.10158249 16.30367069 -29 18 C-29 17.34 -29 16.68 -29 16 C-27.35 15.67 -25.7 15.34 -24 15 C-24 14.34 -24 13.68 -24 13 C-22.02 12.67 -20.04 12.34 -18 12 C-18 10.35 -18 8.7 -18 7 C-22.62 7 -27.24 7 -32 7 C-32 6.67 -32 6.34 -32 6 C-30.75605469 5.81824219 -29.51210938 5.63648438 -28.23046875 5.44921875 C-19.99801182 4.21596312 -11.91697815 2.97942393 -3.93359375 0.55078125 C-2 0 -2 0 0 0 Z " fill="#1A7951" transform="translate(397,335)"/>
<path d="M0 0 C0.66 0.33 1.32 0.66 2 1 C1.67 1.66 1.34 2.32 1 3 C0.90021481 5.85460955 0.86038271 8.68422689 0.8671875 11.5390625 C0.86586823 12.40474854 0.86454895 13.27043457 0.8631897 14.16235352 C0.86126938 16.98327181 0.8676109 19.80409177 0.875 22.625 C0.87632935 24.05111603 0.87632935 24.05111603 0.87768555 25.50604248 C0.8936759 40.02681743 1.15945139 54.50053642 2 69 C2.99 69 3.98 69 5 69 C5.99 69 6.98 69 8 69 C2.03416856 76.66742597 2.03416856 76.66742597 -3 78 C-2.84080078 77.00669678 -2.68160156 76.01339355 -2.51757812 74.98999023 C-1.7514211 68.820148 -1.79696066 62.6141881 -1.73963928 56.40620613 C-1.71841638 54.12428531 -1.69141952 51.8424951 -1.66296387 49.56065369 C-1.59353859 43.90321481 -1.53352787 38.2456845 -1.47393799 32.58813477 C-1.42308306 27.78667068 -1.36834061 22.98528362 -1.30812073 18.18392754 C-1.28150878 15.93205399 -1.26073105 13.68017317 -1.2401123 11.42823792 C-1.2235214 10.05900721 -1.20665064 8.68977986 -1.18945312 7.32055664 C-1.17692505 6.1211293 -1.16439697 4.92170197 -1.15148926 3.68592834 C-1 1 -1 1 0 0 Z " fill="#B8AC90" transform="translate(358,100)"/>
<path d="M0 0 C0.33 0 0.66 0 1 0 C1.02321756 8.87558336 1.04096298 17.75115619 1.05181217 26.62676334 C1.05702044 30.74850096 1.06408061 34.87021774 1.07543945 38.99194336 C1.08634158 42.97306459 1.09229232 46.95416582 1.09487724 50.93530083 C1.09671832 52.45066073 1.10031341 53.96601959 1.10573006 55.48137093 C1.11303782 57.61138358 1.11398686 59.74131463 1.11352539 61.87133789 C1.115746 63.0815712 1.11796661 64.2918045 1.12025452 65.53871155 C0.99690576 69.08906151 0.56558998 72.49512104 0 76 C1.98 75.505 1.98 75.505 4 75 C3.01 76.32 2.02 77.64 1 79 C0.01 78.67 -0.98 78.34 -2 78 C-2.02688151 76.35425434 -2.04634123 74.70838587 -2.0625 73.0625 C-2.07410156 72.14597656 -2.08570313 71.22945313 -2.09765625 70.28515625 C-2 68 -2 68 -1 67 C-0.91139538 65.16509831 -0.89311635 63.32676265 -0.90234375 61.48974609 C-0.90564697 60.31117035 -0.9089502 59.1325946 -0.91235352 57.91830444 C-0.92065186 56.63299835 -0.9289502 55.34769226 -0.9375 54.0234375 C-0.94328619 52.01595403 -0.94906664 50.00847052 -0.95451355 48.0009861 C-0.96768519 43.74599618 -0.98973498 39.49104298 -1.01037598 35.23608398 C-1.026982 31.74801913 -1.04159113 28.25997335 -1.05102539 24.7718811 C-1.05854089 22.15302799 -1.07057734 19.53418303 -1.08764648 16.91537476 C-1.10349366 11.17043362 -1.06280162 5.65397907 0 0 Z " fill="#FEFAEC" transform="translate(356,101)"/>
<path d="M0 0 C5.11250266 1.47322896 9.34843706 3.72243948 13.875 6.4375 C14.56335938 6.83259766 15.25171875 7.22769531 15.9609375 7.63476562 C17.69579513 8.66914006 19.35598328 9.82659875 21 11 C21 11.99 21 12.98 21 14 C15.51594428 13.41307765 10.38047137 12.43595614 5.0625 11 C-0.62768243 9.51387694 -6.12854101 8.41938993 -12 8 C-12 7.67 -12 7.34 -12 7 C-5.565 6.505 -5.565 6.505 1 6 C1 5.34 1 4.68 1 4 C1.99 4 2.98 4 4 4 C2.68 3.34 1.36 2.68 0 2 C0 1.34 0 0.68 0 0 Z " fill="#187A4E" transform="translate(377,33)"/>
<path d="M0 0 C-0.8125 1.9375 -0.8125 1.9375 -2 4 C-2.99 4.33 -3.98 4.66 -5 5 C-5 5.66 -5 6.32 -5 7 C-6.32 7.33 -7.64 7.66 -9 8 C-9 7.34 -9 6.68 -9 6 C-13.62 6.33 -18.24 6.66 -23 7 C-22.67 10.3 -22.34 13.6 -22 17 C-22.66 17 -23.32 17 -24 17 C-24.33820166 15.4176994 -24.67035939 13.83410625 -25 12.25 C-25.185625 11.36828125 -25.37125 10.4865625 -25.5625 9.578125 C-26 7 -26 7 -26 3 C-22.22957855 2.49686083 -18.45859978 1.99802745 -14.6875 1.5 C-13.61564453 1.35691406 -12.54378906 1.21382812 -11.43945312 1.06640625 C-10.41142578 0.93105469 -9.38339844 0.79570312 -8.32421875 0.65625 C-7.37635498 0.53056641 -6.42849121 0.40488281 -5.4519043 0.27539062 C-3 0 -3 0 0 0 Z " fill="#B2A182" transform="translate(325,183)"/>
<path d="M0 0 C0 0.99 0 1.98 0 3 C-1.64453125 4.28125 -1.64453125 4.28125 -3.8125 5.5 C-6.61180386 7.09086121 -8.81249958 8.62618251 -11 11 C-11.66 10.67 -12.32 10.34 -13 10 C-12.125 4.125 -12.125 4.125 -11 3 C-15.4571874 3.26218749 -17.51522698 3.57711289 -20.9375 6.5625 C-21.618125 7.366875 -22.29875 8.17125 -23 9 C-23 8.34 -23 7.68 -23 7 C-24.32 6.67 -25.64 6.34 -27 6 C-17.76250895 0.9630582 -10.43175853 -0.18890508 0 0 Z " fill="#B3A483" transform="translate(430,227)"/>
<path d="M0 0 C0.33 0 0.66 0 1 0 C1 12.87 1 25.74 1 39 C0.67 39 0.34 39 0 39 C0 36.36 0 33.72 0 31 C-0.66 31 -1.32 31 -2 31 C-2.05817206 26.77089131 -2.09365463 22.54188591 -2.125 18.3125 C-2.14175781 17.11431641 -2.15851563 15.91613281 -2.17578125 14.68164062 C-2.18222656 13.52470703 -2.18867188 12.36777344 -2.1953125 11.17578125 C-2.20578613 10.11270752 -2.21625977 9.04963379 -2.22705078 7.9543457 C-1.99375431 4.91873219 -1.28205135 2.74376733 0 0 Z " fill="#B8A88C" transform="translate(374,113)"/>
<path d="M0 0 C1.92875977 0.00483398 1.92875977 0.00483398 3.89648438 0.00976562 C5.2343757 0.01811823 6.57226632 0.02658314 7.91015625 0.03515625 C9.27538899 0.04017966 10.64062351 0.04474108 12.00585938 0.04882812 C15.32817082 0.06056774 18.65039033 0.07698946 21.97265625 0.09765625 C21.97265625 0.75765625 21.97265625 1.41765625 21.97265625 2.09765625 C21.29501221 2.11223877 20.61736816 2.12682129 19.91918945 2.1418457 C1.22501951 2.58788314 -16.71966853 4.31892508 -35.02734375 8.09765625 C-33.59029539 5.22355953 -31.40290083 4.80622859 -28.5 3.7578125 C-24.78372173 2.76563078 -21.08003741 2.52986139 -17.25 2.30859375 C-15.05581533 2.3385069 -15.05581533 2.3385069 -14.02734375 1.09765625 C-9.31402792 0.25800591 -4.78109494 -0.02124931 0 0 Z " fill="#E7FDF4" transform="translate(289.02734375,11.90234375)"/>
<path d="M0 0 C1.02947113 2.77957206 1.10096729 3.75649066 -0.0625 6.5625 C-0.371875 7.366875 -0.68125 8.17125 -1 9 C-0.01 10.485 -0.01 10.485 1 12 C-1.97 11.01 -4.94 10.02 -8 9 C-7.34 8.67 -6.68 8.34 -6 8 C-6 7.34 -6 6.68 -6 6 C-4.37446717 4.29319053 -2.70884005 2.62339805 -1 1 C-2.15757812 1.2165625 -3.31515625 1.433125 -4.5078125 1.65625 C-6.04682443 1.93777657 -7.5858898 2.21901113 -9.125 2.5 C-10.26582031 2.71462891 -10.26582031 2.71462891 -11.4296875 2.93359375 C-15.68042914 3.70312456 -19.65859197 4.16644376 -24 4 C-24 3.34 -24 2.68 -24 2 C-22.41058594 1.80083984 -22.41058594 1.80083984 -20.7890625 1.59765625 C-19.40101721 1.41946125 -18.01299769 1.2410654 -16.625 1.0625 C-15.92632812 0.97548828 -15.22765625 0.88847656 -14.5078125 0.79882812 C-3.65764358 -0.60960726 -3.65764358 -0.60960726 0 0 Z " fill="#F7F2E2" transform="translate(326,182)"/>
<path d="M0 0 C2.31 1.65 4.62 3.3 7 5 C6.67 5.66 6.34 6.32 6 7 C4.68 7 3.36 7 2 7 C1.67 20.2 1.34 33.4 1 47 C-0.485 47.495 -0.485 47.495 -2 48 C-1.76228882 46.31487305 -1.76228882 46.31487305 -1.51977539 44.59570312 C-0.93312232 39.88593676 -0.77865145 35.21046507 -0.68359375 30.46875 C-0.6524221 29.15396667 -0.6524221 29.15396667 -0.62062073 27.81262207 C-0.55579117 25.04181958 -0.49655342 22.27093099 -0.4375 19.5 C-0.39425127 17.60936648 -0.35063507 15.71874132 -0.30664062 13.828125 C-0.20017915 9.21883584 -0.09872881 4.60946101 0 0 Z " fill="#FDFAEB" transform="translate(375,112)"/>
<path d="M0 0 C0.66 0.33 1.32 0.66 2 1 C1.79842285 1.55349121 1.5968457 2.10698242 1.38916016 2.67724609 C0.46039339 5.24055703 -0.45732607 7.80769792 -1.375 10.375 C-1.69210938 11.24511719 -2.00921875 12.11523438 -2.3359375 13.01171875 C-4.44491457 18.94321677 -5.93941453 24.79515748 -7 31 C-7.33 31 -7.66 31 -8 31 C-8 25.06 -8 19.12 -8 13 C-7.34 13 -6.68 13 -6 13 C-5.7525 12.34 -5.505 11.68 -5.25 11 C-3.68182955 7.23639093 -1.85494954 3.6288576 0 0 Z " fill="#167B50" transform="translate(210,131)"/>
<path d="M0 0 C0 0.33 0 0.66 0 1 C5.28 1.33 10.56 1.66 16 2 C16 2.33 16 2.66 16 3 C1.83745864 3.23441945 -11.96378382 2.98491946 -26 1 C-26 0.67 -26 0.34 -26 0 C-22.97950658 -0.19613594 -19.95894342 -0.38214855 -16.9375 -0.5625 C-16.08994141 -0.61857422 -15.24238281 -0.67464844 -14.36914062 -0.73242188 C-9.39662713 -1.02040528 -4.90223755 -0.89796753 0 0 Z " fill="#42916F" transform="translate(296,365)"/>
<path d="M0 0 C2.62113708 0 4.50935112 0.31292445 7 1 C5.5660323 3.58535056 4.12798906 6.16828628 2.6875 8.75 C2.28337891 9.47960937 1.87925781 10.20921875 1.46289062 10.9609375 C-0.50528073 14.48124399 -2.4463705 17.85961421 -5 21 C-5.33 20.01 -5.66 19.02 -6 18 C-5.34 18 -4.68 18 -4 18 C-2.6151797 13.05421323 -2 8.12964247 -2 3 C-1.01 3 -0.02 3 1 3 C0.67 2.01 0.34 1.02 0 0 Z " fill="#1A7B50" transform="translate(219,105)"/>
<path d="M0 0 C0.33 0 0.66 0 1 0 C1.01981934 0.6391333 1.03963867 1.2782666 1.06005859 1.93676758 C1.15663497 4.89568633 1.26576391 7.85402259 1.375 10.8125 C1.4059375 11.81732422 1.436875 12.82214844 1.46875 13.85742188 C1.70031007 19.85868706 2.37144127 25.5419261 3.53662109 31.4309082 C4.21161877 35.17326886 4.45007398 38.89379202 4.625 42.6875 C4.66367188 43.40099609 4.70234375 44.11449219 4.7421875 44.84960938 C4.83434718 46.56608348 4.9181357 48.28300408 5 50 C2.28610785 45.92916178 2.02743091 42.16505185 1.375 37.375 C1.24311279 36.41964355 1.11122559 35.46428711 0.9753418 34.47998047 C-0.4557648 23.01077579 -0.28222779 11.53515648 0 0 Z " fill="#398968" transform="translate(122,179)"/>
<path d="M0 0 C4.94903341 3.15590536 9.64826555 6.46105716 14.1875 10.1875 C17.67031416 13.02917209 20.86289131 15.2580595 25 17 C21.59068103 18.13643966 20.99664544 17.86747764 17.8125 16.5625 C17.09707031 16.27503906 16.38164062 15.98757813 15.64453125 15.69140625 C15.10183594 15.46324219 14.55914062 15.23507812 14 15 C14 14.01 14 13.02 14 12 C11.525 11.01 11.525 11.01 9 10 C9 9.34 9 8.68 9 8 C8.443125 7.9175 7.88625 7.835 7.3125 7.75 C4.23811154 6.75290104 2.33757048 5.20770546 0 3 C0 2.01 0 1.02 0 0 Z " fill="#D0F0E4" transform="translate(182,324)"/>
<path d="M0 0 C1.3223204 4.70696975 0.26095794 7.71704715 -2 12 C-4.0625 13.6875 -4.0625 13.6875 -6 15 C-6.67349161 16.66392045 -7.3409159 18.33032028 -8 20 C-8.99 20.33 -9.98 20.66 -11 21 C-9.53171057 15.82064939 -7.18508737 11.65626588 -4.375 7.125 C-3.95476562 6.43664062 -3.53453125 5.74828125 -3.1015625 5.0390625 C-2.07307528 3.35608342 -1.037279 1.67757468 0 0 Z " fill="#1D7B51" transform="translate(151,93)"/>
<path d="M0 0 C0.66 0.33 1.32 0.66 2 1 C1.74605469 1.969375 1.49210938 2.93875 1.23046875 3.9375 C-1.25387023 13.56491889 -3.28120074 23.20805269 -5 33 C-5.33 33 -5.66 33 -6 33 C-6.08706892 29.72933434 -6.14041241 26.45896635 -6.1875 23.1875 C-6.22520508 21.7943457 -6.22520508 21.7943457 -6.26367188 20.37304688 C-6.27333984 19.48037109 -6.28300781 18.58769531 -6.29296875 17.66796875 C-6.3086792 16.84578857 -6.32438965 16.0236084 -6.34057617 15.17651367 C-5.91999516 12.48871462 -4.99721143 11.76686132 -3 10 C-2.00011074 7.50981988 -2.00011074 7.50981988 -1.3125 4.8125 C-1.06113281 3.91144531 -0.80976563 3.01039063 -0.55078125 2.08203125 C-0.36902344 1.39496094 -0.18726563 0.70789063 0 0 Z " fill="#D3F2E5" transform="translate(129,135)"/>
<path d="M0 0 C0.33 0 0.66 0 1 0 C1.07516846 0.60884033 1.15033691 1.21768066 1.2277832 1.8449707 C2.90505238 16.612361 2.90505238 16.612361 6.546875 30.9765625 C7.07139702 33.31882462 6.75457116 34.74648344 6 37 C5.34 36.67 4.68 36.34 4 36 C4 32.7 4 29.4 4 26 C3.34 26 2.68 26 2 26 C0.3960652 17.24996282 -0.26197285 8.89252296 0 0 Z " fill="#CEF1E2" transform="translate(122,204)"/>
<path d="M0 0 C0.66 0.99 1.32 1.98 2 3 C1.360625 3.4125 0.72125 3.825 0.0625 4.25 C-2.13117731 5.76282556 -2.13117731 5.76282556 -2.4375 7.8125 C-3.14550121 10.56583805 -4.45021866 12.41733763 -6.0625 14.75 C-6.61035156 15.54921875 -7.15820312 16.3484375 -7.72265625 17.171875 C-8.14417969 17.77515625 -8.56570313 18.3784375 -9 19 C-9.99 18.67 -10.98 18.34 -12 18 C-10.18633597 13.87235084 -7.50853382 10.37940795 -4.875 6.75 C-4.17310547 5.77546875 -4.17310547 5.77546875 -3.45703125 4.78125 C-2.30725718 3.18564517 -1.15397434 1.59256975 0 0 Z " fill="#F5F3E5" transform="translate(397,268)"/>
<path d="M0 0 C0 0.66 0 1.32 0 2 C-1.2065625 3.175625 -1.2065625 3.175625 -2.4375 4.375 C-4.94561869 6.94429231 -5.38627547 7.68447669 -6 11 C-6.56589844 11.12117188 -7.13179687 11.24234375 -7.71484375 11.3671875 C-8.44832031 11.53476562 -9.18179688 11.70234375 -9.9375 11.875 C-11.03384766 12.11863281 -11.03384766 12.11863281 -12.15234375 12.3671875 C-14.20700294 12.82961523 -14.20700294 12.82961523 -15 15 C-15.99 14.67 -16.98 14.34 -18 14 C-2.5664488 0 -2.5664488 0 0 0 Z " fill="#197A4F" transform="translate(194,49)"/>
<path d="M0 0 C0.99 0.66 1.98 1.32 3 2 C3.4375 4.4375 3.4375 4.4375 3 7 C2.35675781 7.40992188 1.71351563 7.81984375 1.05078125 8.2421875 C-1.88032194 10.75456166 -1.80241089 12.9202917 -2.25 16.6875 C-2.39953125 17.86699219 -2.5490625 19.04648438 -2.703125 20.26171875 C-2.80109375 21.16535156 -2.8990625 22.06898438 -3 23 C-3.33 23 -3.66 23 -4 23 C-4.48661855 14.37603795 -3.92480024 7.76199333 0 0 Z " fill="#B7AC93" transform="translate(444,174)"/>
<path d="M0 0 C5.68907607 1.22705562 7.87536271 2.77224678 12 7 C14.29183829 8.22039188 16.55804407 9.09025171 19 10 C19 11.32 19 12.64 19 14 C12.15583344 10.42236748 5.99409153 5.85235981 0 1 C0 0.67 0 0.34 0 0 Z " fill="#D2F0E2" transform="translate(252,305)"/>
<path d="M0 0 C4.60416626 0.60875755 8.56483324 1.84722956 12.875 3.5625 C14.02742187 4.01753906 15.17984375 4.47257812 16.3671875 4.94140625 C17.67042969 5.46541016 17.67042969 5.46541016 19 6 C19 6.66 19 7.32 19 8 C11.84831485 7.50104522 5.58708719 4.68436185 -1 2 C-0.67 1.34 -0.34 0.68 0 0 Z " fill="#227A53" transform="translate(233,353)"/>
<path d="M0 0 C0.99 0.33 1.98 0.66 3 1 C2.70703125 2.98567708 2.4140625 4.97135417 2.12109375 6.95703125 C1.86095201 9.2025342 1.86095201 9.2025342 3 12 C2.67 12.99 2.34 13.98 2 15 C0.99466333 13.37829621 -0.00411907 11.75252763 -1 10.125 C-1.556875 9.22007812 -2.11375 8.31515625 -2.6875 7.3828125 C-4 5 -4 5 -4 3 C-3.01 3 -2.02 3 -1 3 C-0.67 2.01 -0.34 1.02 0 0 Z " fill="#147A4E" transform="translate(148,272)"/>
<path d="M0 0 C0.66 0.33 1.32 0.66 2 1 C1.46105575 5.59808129 0.23428472 8.86784369 -2.0625 12.875 C-2.61035156 13.84179688 -3.15820312 14.80859375 -3.72265625 15.8046875 C-4.14417969 16.52914062 -4.56570313 17.25359375 -5 18 C-9.75 17.25 -9.75 17.25 -12 15 C-9.69 15 -7.38 15 -5 15 C-4.87753906 14.45859375 -4.75507813 13.9171875 -4.62890625 13.359375 C-3.88995118 10.58714603 -2.93073846 7.94135583 -1.9375 5.25 C-1.57527344 4.26515625 -1.21304687 3.2803125 -0.83984375 2.265625 C-0.56269531 1.51796875 -0.28554688 0.7703125 0 0 Z " fill="#B1A689" transform="translate(485,235)"/>
<path d="M0 0 C0.33 0.66 0.66 1.32 1 2 C1.66 2 2.32 2 3 2 C1.84935183 4.30129634 0.70256226 5.11255841 -1.3125 6.6875 C-4.97407583 9.7388132 -6.87862976 12.75725951 -9 17 C-9.33 16.34 -9.66 15.68 -10 15 C-10.66 14.67 -11.32 14.34 -12 14 C-10.5645497 12.22750476 -9.12656197 10.45706424 -7.6875 8.6875 C-6.88699219 7.70136719 -6.08648437 6.71523437 -5.26171875 5.69921875 C-3.57311644 3.68397834 -1.90369301 1.80511991 0 0 Z " fill="#218056" transform="translate(172,67)"/>
<path d="M0 0 C-1.08539063 0.39832031 -2.17078125 0.79664063 -3.2890625 1.20703125 C-4.73444107 1.74200903 -6.17974988 2.27717531 -7.625 2.8125 C-8.33785156 3.07353516 -9.05070312 3.33457031 -9.78515625 3.60351562 C-13.09628103 4.83379593 -16.2324965 6.11624825 -19.3984375 7.69921875 C-22 9 -22 9 -24 9 C-23.7421875 7.09765625 -23.7421875 7.09765625 -23 5 C-21.3203125 4.05859375 -21.3203125 4.05859375 -19.125 3.4375 C-18.320625 3.20417969 -17.51625 2.97085938 -16.6875 2.73046875 C-15.3571875 2.36888672 -15.3571875 2.36888672 -14 2 C-13.030625 1.70738281 -12.06125 1.41476563 -11.0625 1.11328125 C-3.40839223 -1.13613074 -3.40839223 -1.13613074 0 0 Z " fill="#207852" transform="translate(306,47)"/>
<path d="M0 0 C0.33 0 0.66 0 1 0 C1.35858439 3.85478218 1.2754818 5.57759458 -0.875 8.875 C-1.57625 9.57625 -2.2775 10.2775 -3 11 C-3.66 11 -4.32 11 -5 11 C-5.33 11.99 -5.66 12.98 -6 14 C-7.29355827 15.37195574 -8.62298702 16.71182656 -10 18 C-10.66 17.67 -11.32 17.34 -12 17 C-10.02619086 14.16289903 -8.04508282 11.33097524 -6.0625 8.5 C-5.49853516 7.68917969 -4.93457031 6.87835938 -4.35351562 6.04296875 C-3.81533203 5.27597656 -3.27714844 4.50898438 -2.72265625 3.71875 C-1.97640991 2.65043945 -1.97640991 2.65043945 -1.21508789 1.56054688 C-0.81410889 1.04556641 -0.41312988 0.53058594 0 0 Z " fill="#B4A88B" transform="translate(394,242)"/>
<path d="M0 0 C3.5865054 1.33213058 6.87682483 2.76916059 10 5 C10 5.99 10 6.98 10 8 C5.03083364 7.48594831 0.70973649 6.76615118 -4 5 C-2.68 4.34 -1.36 3.68 0 3 C0 2.01 0 1.02 0 0 Z " fill="#338161" transform="translate(388,39)"/>
<path d="M0 0 C0.81597656 0.03544922 1.63195312 0.07089844 2.47265625 0.10742188 C3.26285156 0.15060547 4.05304688 0.19378906 4.8671875 0.23828125 C5.94782471 0.29495972 5.94782471 0.29495972 7.05029297 0.3527832 C9.125 0.6875 9.125 0.6875 13.125 2.6875 C3.885 2.6875 -5.355 2.6875 -14.875 2.6875 C-9.34740445 -0.07629777 -6.10941236 -0.34897269 0 0 Z " fill="#17774E" transform="translate(306.875,364.3125)"/>
<path d="M0 0 C1.65 0 3.3 0 5 0 C5.08912219 3.83225427 4.87867729 7.26562152 4 11 C1.03 10.67 -1.94 10.34 -5 10 C-2 7 -2 7 0.625 5.5 C3.29756313 4.16270693 3.29756313 4.16270693 4 1 C2.68 1.33 1.36 1.66 0 2 C0 1.34 0 0.68 0 0 Z " fill="#D6EFE5" transform="translate(393,334)"/>
<path d="M0 0 C6 7.71428571 6 7.71428571 6 13 C2.63408134 11.55746343 0.48952921 9.66735273 -2 7 C-1.34 7 -0.68 7 0 7 C-0.185625 6.030625 -0.37125 5.06125 -0.5625 4.0625 C-0.706875 3.051875 -0.85125 2.04125 -1 1 C-0.67 0.67 -0.34 0.34 0 0 Z " fill="#ACA284" transform="translate(378,105)"/>
<path d="M0 0 C0.33 0.66 0.66 1.32 1 2 C1.66 2 2.32 2 3 2 C3.33 2.99 3.66 3.98 4 5 C5.62948064 6.22445284 5.62948064 6.22445284 7.5625 7.1875 C8.696875 7.785625 9.83125 8.38375 11 9 C11 9.66 11 10.32 11 11 C12.32 11 13.64 11 15 11 C14.67 12.65 14.34 14.3 14 16 C13.55269531 15.61328125 13.10539063 15.2265625 12.64453125 14.828125 C12.03996094 14.30734375 11.43539062 13.7865625 10.8125 13.25 C10.17441406 12.69957031 9.53632813 12.14914062 8.87890625 11.58203125 C7.37667562 10.31715931 5.82105781 9.11579336 4.25 7.9375 C1.82244086 5.84710185 0.48746909 3.81836248 -1 1 C-0.67 0.67 -0.34 0.34 0 0 Z " fill="#D5F0E4" transform="translate(238,289)"/>
<path d="M0 0 C-0.33 0.99 -0.66 1.98 -1 3 C-1.99 3.33 -2.98 3.66 -4 4 C-4.33 4.66 -4.66 5.32 -5 6 C-6.2065625 5.9690625 -6.2065625 5.9690625 -7.4375 5.9375 C-9.93354885 5.70366379 -9.93354885 5.70366379 -11 7 C-13.33297433 7.04092937 -15.66705225 7.04241723 -18 7 C-15.38056097 4.38056097 -12.42526027 3.55802162 -9 2.375 C-8.03707031 2.03082031 -8.03707031 2.03082031 -7.0546875 1.6796875 C-2.27557664 0 -2.27557664 0 0 0 Z " fill="#D1EEE2" transform="translate(370,353)"/>
<path d="M0 0 C4.39683488 1.19913678 7.09840934 2.4288115 10 6 C10 6.66 10 7.32 10 8 C10.99 7.67 11.98 7.34 13 7 C13 7.66 13 8.32 13 9 C13.66 9 14.32 9 15 9 C15 9.99 15 10.98 15 12 C10.70697803 10.58446303 7.99477764 8.48999477 4.6875 5.4375 C3.80449219 4.63183594 2.92148438 3.82617188 2.01171875 2.99609375 C1.34785156 2.33738281 0.68398437 1.67867188 0 1 C0 0.67 0 0.34 0 0 Z " fill="#2F8460" transform="translate(176,318)"/>
<path d="M0 0 C3.10468986 2.54020079 3.98485936 5.17370067 5 9 C5 10.32 5 11.64 5 13 C1 13 1 13 -1.125 11.125 C-1.74375 10.42375 -2.3625 9.7225 -3 9 C-3.66 8.34 -4.32 7.68 -5 7 C-2.23723823 7.52268466 0.3260876 8.10869587 3 9 C2.505 8.2575 2.01 7.515 1.5 6.75 C0 4 0 4 0 0 Z " fill="#B2A68D" transform="translate(369,217)"/>
<path d="M0 0 C5.40115062 0.36257724 10.0556493 1.18017562 15.0703125 3.234375 C17.98789586 4.39195868 20.97220678 5.17997267 24 6 C24 6.66 24 7.32 24 8 C18.61671112 7.31184495 13.73143827 5.69258365 8.625 3.9375 C7.79355469 3.65583984 6.96210938 3.37417969 6.10546875 3.08398438 C4.06891559 2.39342899 2.03426119 1.69727821 0 1 C0 0.67 0 0.34 0 0 Z " fill="#B9AF94" transform="translate(312,207)"/>
<path d="M0 0 C1.75 2.0625 1.75 2.0625 3 4 C2.01 3.67 1.02 3.34 0 3 C-1.95566503 2.88020855 -3.91570766 2.82471504 -5.875 2.8125 C-6.90367187 2.79832031 -7.93234375 2.78414063 -8.9921875 2.76953125 C-12.00702159 2.84627187 -12.00702159 2.84627187 -14.6328125 4.07421875 C-17.28929996 5.11314206 -18.37399087 4.97259597 -21 4 C-18.9170757 3.35284867 -16.83364461 2.70732834 -14.75 2.0625 C-13.58984375 1.70285156 -12.4296875 1.34320313 -11.234375 0.97265625 C-3.34101607 -1.40107125 -3.34101607 -1.40107125 0 0 Z " fill="#B6AA8F" transform="translate(474,124)"/>
<path d="M0 0 C2.9719385 1.12451727 5.33440687 2.22293791 8 4 C8.33333333 6 8.66666667 8 9 10 C9.99 10.66 10.98 11.32 12 12 C10.68 12 9.36 12 8 12 C5.859375 9.62890625 5.859375 9.62890625 3.75 6.5625 C3.04359375 5.55316406 2.3371875 4.54382813 1.609375 3.50390625 C0 1 0 1 0 0 Z " fill="#F9F7EC" transform="translate(472,216)"/>
<path d="M0 0 C0.66 0.33 1.32 0.66 2 1 C2 5.95 2 10.9 2 16 C1.34 16 0.68 16 0 16 C0 17.98 0 19.96 0 22 C-0.33 22 -0.66 22 -1 22 C-1.02700675 19.08327116 -1.04684237 16.16679323 -1.0625 13.25 C-1.07087891 12.425 -1.07925781 11.6 -1.08789062 10.75 C-1.09111328 9.95078125 -1.09433594 9.1515625 -1.09765625 8.328125 C-1.10289307 7.5949707 -1.10812988 6.86181641 -1.11352539 6.10644531 C-0.9975109 3.9538151 -0.59073271 2.0685865 0 0 Z " fill="#1A7951" transform="translate(124,164)"/>
<path d="M0 0 C2.97564884 2.87534607 5.61205381 5.88757233 8.1875 9.125 C9.22970703 10.42824219 9.22970703 10.42824219 10.29296875 11.7578125 C12 14 12 14 13 16 C11.35 15.67 9.7 15.34 8 15 C7.67 14.01 7.34 13.02 7 12 C6.34 11.360625 5.68 10.72125 5 10.0625 C2.94497246 7.94325285 2.40893155 6.86252086 2 4 C1.34 4 0.68 4 0 4 C0 2.68 0 1.36 0 0 Z " fill="#D4F3E5" transform="translate(155,294)"/>
<path d="M0 0 C0.33 0 0.66 0 1 0 C1.59672183 7.51869512 0.14352972 11.74031045 -4 18 C-5.68550367 14.62899267 -3.68863036 11.27985368 -2.5625 7.875 C-2.19801758 6.74384766 -2.19801758 6.74384766 -1.82617188 5.58984375 C-1.22404181 3.72442121 -0.61286537 1.86192317 0 0 Z " fill="#2E7F5C" transform="translate(133,128)"/>
<path d="M0 0 C0.66 0.99 1.32 1.98 2 3 C1.1875 5.375 1.1875 5.375 0 8 C-0.36871088 9.65919896 -0.71281674 11.3247643 -1 13 C-2.32 13.33 -3.64 13.66 -5 14 C-4.34580901 8.93001981 -2.1453591 4.58009223 0 0 Z " fill="#2D815C" transform="translate(139,114)"/>
<path d="M0 0 C0.99 0.66 1.98 1.32 3 2 C5.64632287 1.6878236 5.64632287 1.6878236 8 1 C3.98745115 4.51098025 -0.20983041 6.76537994 -5 9 C-4.29333737 5.69771116 -3.49578316 4.28780123 -1 2 C-0.67 1.34 -0.34 0.68 0 0 Z " fill="#1C7850" transform="translate(270,57)"/>
<path d="M0 0 C6.65050424 -0.24991456 12.56986533 0.26044666 19 2 C18.67 2.66 18.34 3.32 18 4 C11.85845775 3.41509121 5.99320151 2.45933748 0 1 C0 0.67 0 0.34 0 0 Z " fill="#247956" transform="translate(252,361)"/>
<path d="M0 0 C1.70884005 1.62339805 3.37446717 3.29319053 5 5 C5 5.66 5 6.32 5 7 C5.66 7 6.32 7 7 7 C8.625 9.5 8.625 9.5 10 12 C9.01 12.495 9.01 12.495 8 13 C6.62437146 11.71034824 5.29233607 10.37310707 4 9 C4 8.34 4 7.68 4 7 C3.34 7 2.68 7 2 7 C0 4 0 4 0 0 Z " fill="#207A55" transform="translate(230,282)"/>
<path d="M0 0 C0 0.33 0 0.66 0 1 C-2.70827004 1.47952665 -5.41661344 1.95863231 -8.125 2.4375 C-8.88554687 2.57220703 -9.64609375 2.70691406 -10.4296875 2.84570312 C-14.61637161 3.58559127 -18.80477147 4.30973077 -23 5 C-21.59074575 2.1814915 -19.5366886 1.63846166 -16.67578125 0.59765625 C-11.20850813 -0.6235011 -5.56736399 -0.21112195 0 0 Z " fill="#D5F4E8" transform="translate(277,15)"/>
<path d="M0 0 C5.13124097 0.67388133 10.3081196 0.95447846 15.46875 1.32421875 C15.46875 1.65421875 15.46875 1.98421875 15.46875 2.32421875 C12.07293484 2.35337315 8.67715214 2.37106943 5.28125 2.38671875 C4.32154297 2.39509766 3.36183594 2.40347656 2.37304688 2.41210938 C1.44169922 2.41533203 0.51035156 2.41855469 -0.44921875 2.421875 C-1.30281982 2.42711182 -2.1564209 2.43234863 -3.03588867 2.43774414 C-5.62371747 2.32001198 -8.00786953 1.89528919 -10.53125 1.32421875 C-10.53125 0.99421875 -10.53125 0.66421875 -10.53125 0.32421875 C-6.82182331 -0.71905751 -3.78748089 -0.56083852 0 0 Z " fill="#D4F0E4" transform="translate(333.53125,338.67578125)"/>
<path d="M0 0 C0.66 0 1.32 0 2 0 C1.23204965 3.95904503 0.35008694 7.88440841 -0.5625 11.8125 C-0.96662109 13.55466797 -0.96662109 13.55466797 -1.37890625 15.33203125 C-1.58386719 16.21246094 -1.78882813 17.09289062 -2 18 C-2.33 18 -2.66 18 -3 18 C-3.05389087 16.04196493 -3.09274217 14.08351091 -3.125 12.125 C-3.14820313 11.03445312 -3.17140625 9.94390625 -3.1953125 8.8203125 C-3 6 -3 6 -1 4 C-0.3574765 1.93125966 -0.3574765 1.93125966 0 0 Z " fill="#287C59" transform="translate(205,144)"/>
<path d="M0 0 C0.99 0.33 1.98 0.66 3 1 C-0.3 4.3 -3.6 7.6 -7 11 C-7 7.79604584 -6.25664978 5.90600261 -5 3 C-4.01 3 -3.02 3 -2 3 C-2 2.34 -2 1.68 -2 1 C-1.34 0.67 -0.68 0.34 0 0 Z " fill="#247953" transform="translate(241,84)"/>
<path d="M0 0 C-4.29 2.97 -8.58 5.94 -13 9 C-13 8.01 -13 7.02 -13 6 C-12.360625 5.731875 -11.72125 5.46375 -11.0625 5.1875 C-8.66868314 4.11332248 -8.66868314 4.11332248 -8 1 C-4.68510482 -0.74468167 -3.63361056 -1.21120352 0 0 Z " fill="#DFF6EC" transform="translate(204,42)"/>
<path d="M0 0 C2.29199177 0.14063135 4.58359186 0.28765943 6.875 0.4375 C8.15117187 0.51871094 9.42734375 0.59992187 10.7421875 0.68359375 C14 1 14 1 16 2 C16.99 2.33 17.98 2.66 19 3 C15.69444029 4.80762921 14.21512669 5.04117937 10.44921875 4.3203125 C9.20785156 3.92585938 7.96648437 3.53140625 6.6875 3.125 C5.43324219 2.73570313 4.17898438 2.34640625 2.88671875 1.9453125 C1.93410156 1.63335938 0.98148437 1.32140625 0 1 C0 0.67 0 0.34 0 0 Z " fill="#CBEDDE" transform="translate(338,18)"/>
<path d="M0 0 C0.33 0.66 0.66 1.32 1 2 C-0.67927582 6.24238102 -1.83618413 8.19567979 -6 10 C-6.33 10.99 -6.66 11.98 -7 13 C-7.33 12.34 -7.66 11.68 -8 11 C-6.85539001 9.35331565 -5.70927742 7.70767566 -4.5625 6.0625 C-3.92441406 5.14597656 -3.28632813 4.22945313 -2.62890625 3.28515625 C-1 1 -1 1 0 0 Z " fill="#F6F2E3" transform="translate(406,256)"/>
<path d="M0 0 C-1.36125 0.61875 -1.36125 0.61875 -2.75 1.25 C-5.79665618 2.89050718 -7.71126806 4.44718361 -10 7 C-10 6.34 -10 5.68 -10 5 C-11.32 4.67 -12.64 4.34 -14 4 C-12.42466914 3.13116294 -10.83935491 2.28040932 -9.25 1.4375 C-8.36828125 0.96183594 -7.4865625 0.48617187 -6.578125 -0.00390625 C-3.79298812 -1.07998186 -2.73019786 -1.06528748 0 0 Z " fill="#B6AB91" transform="translate(417,229)"/>
<path d="M0 0 C1.8871875 0.061875 1.8871875 0.061875 3.8125 0.125 C0.7291097 3.2083903 -2.46844782 4.04289602 -6.8046875 4.25 C-9.26885418 4.25 -11.72499932 4.21259884 -14.1875 4.125 C-14.1875 3.795 -14.1875 3.465 -14.1875 3.125 C-13.094375 3.00125 -12.00125 2.8775 -10.875 2.75 C-6.6496682 2.03384207 -4.32024355 -0.14164733 0 0 Z " fill="#F5EEDF" transform="translate(414.1875,138.875)"/>
<path d="M0 0 C1.32 0.99 2.64 1.98 4 3 C2.02 5.97 0.04 8.94 -2 12 C-3.15957207 8.52128379 -2.77456651 7.65780355 -1.5625 4.3125 C-1.13130859 3.10013672 -1.13130859 3.10013672 -0.69140625 1.86328125 C-0.46324219 1.24839844 -0.23507813 0.63351563 0 0 Z " fill="#E5F8F1" transform="translate(155,80)"/>
<path d="M0 0 C1.60597325 0.45196245 3.20972508 0.91182327 4.8125 1.375 C6.15248047 1.75785156 6.15248047 1.75785156 7.51953125 2.1484375 C10 3 10 3 13 5 C9.57056481 6.18771723 7.62215325 5.80226223 4.25 4.5625 C3.45078125 4.27503906 2.6515625 3.98757812 1.828125 3.69140625 C1.22484375 3.46324219 0.6215625 3.23507813 0 3 C0 2.01 0 1.02 0 0 Z " fill="#1C7550" transform="translate(353,23)"/>
<path d="M0 0 C-3.0333779 2.02225194 -5.61344489 2.99347524 -9.0625 4.125 C-10.12597656 4.47820313 -11.18945312 4.83140625 -12.28515625 5.1953125 C-15 6 -15 6 -17 6 C-17 5.34 -17 4.68 -17 4 C-15.35 4 -13.7 4 -12 4 C-11.67 3.01 -11.34 2.02 -11 1 C-7.27569643 0.30710631 -3.78916254 -0.11144596 0 0 Z " fill="#CEF2E4" transform="translate(251,20)"/>
<path d="M0 0 C0 0.33 0 0.66 0 1 C-6.435 1.495 -6.435 1.495 -13 2 C-13 2.66 -13 3.32 -13 4 C-15.64 3.67 -18.28 3.34 -21 3 C-21 2.67 -21 2.34 -21 2 C-13.94546999 0.79556805 -7.16562789 -0.28100502 0 0 Z " fill="#308361" transform="translate(285,15)"/>
<path d="M0 0 C0.33 0 0.66 0 1 0 C0.67 4.29 0.34 8.58 0 13 C1.32 12.67 2.64 12.34 4 12 C3.01 13.32 2.02 14.64 1 16 C0.01 15.67 -0.98 15.34 -2 15 C-2.3690205 4.44191344 -2.3690205 4.44191344 0 0 Z " fill="#EEE9DC" transform="translate(356,164)"/>
<path d="M0 0 C0.99 0 1.98 0 3 0 C3.66 2.31 4.32 4.62 5 7 C3.35 8.32 1.7 9.64 0 11 C0 7.37 0 3.74 0 0 Z " fill="#B5AA8E" transform="translate(465,142)"/>
<path d="M0 0 C0.66 0.66 1.32 1.32 2 2 C1.625 5.125 1.625 5.125 1 8 C-0.32 8 -1.64 8 -3 8 C-3.33 7.34 -3.66 6.68 -4 6 C-2.68 4.02 -1.36 2.04 0 0 Z " fill="#177C51" transform="translate(156,86)"/>
<path d="M0 0 C-1.9151579 0.81604999 -3.83218834 1.62770632 -5.75 2.4375 C-6.81734375 2.88996094 -7.8846875 3.34242188 -8.984375 3.80859375 C-13.86024096 5.73493976 -13.86024096 5.73493976 -16 6 C-16.66 5.34 -17.32 4.68 -18 4 C-15.75438718 3.13237686 -13.50473745 2.2807897 -11.25 1.4375 C-10.61578125 1.19064453 -9.9815625 0.94378906 -9.328125 0.68945312 C-5.88990821 -0.58197079 -3.47831118 -1.46686355 0 0 Z " fill="#F0EAD8" transform="translate(460,146)"/>
<path d="M0 0 C4.875 4.625 4.875 4.625 6 8 C4.02 8.33 2.04 8.66 0 9 C0 6.03 0 3.06 0 0 Z " fill="#1D7D53" transform="translate(224,274)"/>
<path d="M0 0 C1 4 1 4 0.3125 6.0625 C-1.18464888 8.27257692 -2.79042813 9.52695209 -5 11 C-5.66 10.67 -6.32 10.34 -7 10 C-3.535 5.05 -3.535 5.05 0 0 Z " fill="#EFEDDE" transform="translate(414,244)"/>
<path d="M0 0 C0.99 0 1.98 0 3 0 C3.33 4.62 3.66 9.24 4 14 C3.34 14 2.68 14 2 14 C1.66179834 12.4176994 1.32964061 10.83410625 1 9.25 C0.814375 8.36828125 0.62875 7.4865625 0.4375 6.578125 C0 4 0 4 0 0 Z " fill="#B6A68C" transform="translate(299,186)"/>
<path d="M0 0 C0.66 0.33 1.32 0.66 2 1 C0.33333333 2.66666667 -1.33333333 4.33333333 -3 6 C-3.515625 6.61875 -4.03125 7.2375 -4.5625 7.875 C-5.2740625 8.431875 -5.2740625 8.431875 -6 9 C-7.32 8.67 -8.64 8.34 -10 8 C-6.7 5.36 -3.4 2.72 0 0 Z " fill="#D0F1E5" transform="translate(266,65)"/>
<path d="M0 0 C-0.25 1.875 -0.25 1.875 -1 4 C-3.0625 5.25 -3.0625 5.25 -5 6 C-5.33 5.34 -5.66 4.68 -6 4 C-8.01669827 2.86649466 -8.01669827 2.86649466 -10 2 C-8.7090864 1.66376204 -7.41723903 1.33110751 -6.125 1 C-5.40570313 0.814375 -4.68640625 0.62875 -3.9453125 0.4375 C-2 0 -2 0 0 0 Z " fill="#2F7C5D" transform="translate(397,335)"/>
<path d="M0 0 C8.415 1.98 8.415 1.98 17 4 C17 4.33 17 4.66 17 5 C10.83740688 5.37730162 6.47265414 4.96435433 1 2 C0.67 1.34 0.34 0.68 0 0 Z " fill="#31805D" transform="translate(302,334)"/>
<path d="M0 0 C1.16144531 0.00902344 2.32289063 0.01804688 3.51953125 0.02734375 C4.39996094 0.03894531 5.28039062 0.05054688 6.1875 0.0625 C6.1875 0.3925 6.1875 0.7225 6.1875 1.0625 C-0.20264027 2.64694052 -5.31698709 3.26537276 -11.8125 2.0625 C-11.8125 1.7325 -11.8125 1.4025 -11.8125 1.0625 C-7.81454108 0.10630267 -4.10446078 -0.0414592 0 0 Z " fill="#E0F8ED" transform="translate(329.8125,41.9375)"/>
<path d="M0 0 C2.97 0.495 2.97 0.495 6 1 C6 1.66 6 2.32 6 3 C6.928125 2.690625 6.928125 2.690625 7.875 2.375 C8.926875 2.189375 8.926875 2.189375 10 2 C10.66 2.66 11.32 3.32 12 4 C11.67 4.99 11.34 5.98 11 7 C7.37 5.02 3.74 3.04 0 1 C0 0.67 0 0.34 0 0 Z " fill="#D4F0E3" transform="translate(379,33)"/>
<path d="M0 0 C2.475 0.495 2.475 0.495 5 1 C5 1.99 5 2.98 5 4 C5.66 4 6.32 4 7 4 C7.33 5.98 7.66 7.96 8 10 C4.71211176 6.88983545 2.16264012 3.98381075 0 0 Z " fill="#B0A287" transform="translate(456,224)"/>
<path d="M0 0 C0.99 0.33 1.98 0.66 3 1 C5.63804589 0.60602665 5.63804589 0.60602665 8 0 C3.375 4.875 3.375 4.875 0 6 C-1.125 2.25 -1.125 2.25 0 0 Z " fill="#1B7C53" transform="translate(257,66)"/>
<path d="M0 0 C0.33 0.66 0.66 1.32 1 2 C1.66 2.33 2.32 2.66 3 3 C-0.96 4.98 -0.96 4.98 -5 7 C-5.66 6.34 -6.32 5.68 -7 5 C-4.69 3.35 -2.38 1.7 0 0 Z " fill="#257D56" transform="translate(201,43)"/>
<path d="M0 0 C4.72224516 1.53472968 9.35855331 3.23945126 14 5 C14 5.33 14 5.66 14 6 C8.86425246 5.56476716 5.22235233 5.19875176 1 2 C0.67 1.34 0.34 0.68 0 0 Z " fill="#1D774F" transform="translate(286,328)"/>
<path d="M0 0 C3.53372712 1.96318174 6.24479785 4.04070881 9 7 C8.01 7.495 8.01 7.495 7 8 C7 7.34 7 6.68 7 6 C4.69 5.67 2.38 5.34 0 5 C0 3.35 0 1.7 0 0 Z " fill="#1D7A53" transform="translate(252,306)"/>
<path d="M0 0 C0.66 0.33 1.32 0.66 2 1 C0.35 3.64 -1.3 6.28 -3 9 C-3.66 8.01 -4.32 7.02 -5 6 C-2.25 1.125 -2.25 1.125 0 0 Z " fill="#F9F7E9" transform="translate(392,242)"/>
<path d="M0 0 C3.91586149 2.61057433 4.00639127 4.49054499 5 9 C5.125 11.9375 5.125 11.9375 5 14 C2.81385576 11.81385576 2.31743465 10.46120051 1.375 7.5625 C1.11460937 6.78003906 0.85421875 5.99757812 0.5859375 5.19140625 C0 3 0 3 0 0 Z " fill="#E0FAEF" transform="translate(206,232)"/>
<path d="M0 0 C0.66 0.66 1.32 1.32 2 2 C0.21189234 2.69670416 -1.58062052 3.38211189 -3.375 4.0625 C-4.37273437 4.44535156 -5.37046875 4.82820312 -6.3984375 5.22265625 C-9 6 -9 6 -11 5 C-9.68 4.34 -8.36 3.68 -7 3 C-7 2.34 -7 1.68 -7 1 C-5.5459375 1.0309375 -5.5459375 1.0309375 -4.0625 1.0625 C-1.12534105 1.35618499 -1.12534105 1.35618499 0 0 Z " fill="#F4EEE2" transform="translate(432,133)"/>
<path d="M0 0 C0 2 0 2 -2.125 4.5 C-5.0833566 7.072484 -7.24219895 8.03870206 -11 9 C-9.33333333 7.33333333 -7.66666667 5.66666667 -6 4 C-5.278125 3.236875 -4.55625 2.47375 -3.8125 1.6875 C-2 0 -2 0 0 0 Z " fill="#328460" transform="translate(194,49)"/>
<path d="M0 0 C7.74468085 0.74468085 7.74468085 0.74468085 11 4 C11 4.66 11 5.32 11 6 C6.49197399 4.74194623 3.5087188 3.09592835 0 0 Z " fill="#2F7E5B" transform="translate(213,345)"/>
<path d="M0 0 C3.3 1.65 6.6 3.3 10 5 C8.02 5.99 8.02 5.99 6 7 C5.34 6.67 4.68 6.34 4 6 C4 5.34 4 4.68 4 4 C2.68 3.34 1.36 2.68 0 2 C0 1.34 0 0.68 0 0 Z " fill="#D6F2E4" transform="translate(207,342)"/>
<path d="M0 0 C2.86453858 3.41016497 4.34703566 6.90694544 6 11 C5.01 11.495 5.01 11.495 4 12 C4 11.01 4 10.02 4 9 C3.01 8.67 2.02 8.34 1 8 C0.67 5.36 0.34 2.72 0 0 Z " fill="#CCEDE0" transform="translate(140,269)"/>
<path d="M0 0 C3.5308582 0.88271455 5.96160695 1.97440463 9 4 C8.67 4.66 8.34 5.32 8 6 C4.37 4.68 0.74 3.36 -3 2 C-2.01 1.34 -1.02 0.68 0 0 Z " fill="#F4EDDE" transform="translate(349,199)"/>
<path d="M0 0 C0.33 0.66 0.66 1.32 1 2 C3.02463255 2.65213292 3.02463255 2.65213292 5 3 C-1.75 7 -1.75 7 -4 7 C-4 6.34 -4 5.68 -4 5 C-3.34 4.67 -2.68 4.34 -2 4 C-0.86649466 1.98330173 -0.86649466 1.98330173 0 0 Z " fill="#E0F3EB" transform="translate(208,34)"/>
<path d="M0 0 C2.97 0.33 5.94 0.66 9 1 C9.33 1.99 9.66 2.98 10 4 C5.78087253 3.5205537 3.20336822 2.83374881 0 0 Z " fill="#C1E6D8" transform="translate(288,328)"/>
<path d="M0 0 C0.66 0.99 1.32 1.98 2 3 C1 5 1 5 -1 7 C-3.75372909 7.36933645 -6.20365661 7.18336678 -9 7 C-9 6.67 -9 6.34 -9 6 C-7.88625 5.7525 -6.7725 5.505 -5.625 5.25 C-1.95384802 4.38994661 -1.95384802 4.38994661 -0.5625 1.875 C-0.376875 1.25625 -0.19125 0.6375 0 0 Z " fill="#B1A485" transform="translate(384,281)"/>
<path d="M0 0 C2 1 4 2 6 3 C6 3.66 6 4.32 6 5 C6.66 5 7.32 5 8 5 C7.67 5.66 7.34 6.32 7 7 C6.01 7 5.02 7 4 7 C2.02 3.535 2.02 3.535 0 0 Z " fill="#E2F6ED" transform="translate(228,278)"/>
<path d="M0 0 C0.99 0.66 1.98 1.32 3 2 C1.35 4.31 -0.3 6.62 -2 9 C-2.66 8.01 -3.32 7.02 -4 6 C-3.34 4.68 -2.68 3.36 -2 2 C-1.34 2 -0.68 2 0 2 C0 1.34 0 0.68 0 0 Z " fill="#F7F6E9" transform="translate(380,257)"/>
<path d="M0 0 C0.33 0 0.66 0 1 0 C1.3125 2.25 1.3125 2.25 1 5 C-1.5 7.3125 -1.5 7.3125 -4 9 C-4.66 8.67 -5.32 8.34 -6 8 C-5.02471263 6.66382648 -4.04466681 5.3311249 -3.0625 4 C-2.24458984 2.88625 -2.24458984 2.88625 -1.41015625 1.75 C-0.94480469 1.1725 -0.47945313 0.595 0 0 Z " fill="#F0EDDD" transform="translate(421,235)"/>
<path d="M0 0 C-3.00440021 2.00293347 -4.70993945 2.49271626 -8.1875 3.125 C-9.53908203 3.37636719 -9.53908203 3.37636719 -10.91796875 3.6328125 C-11.60503906 3.75398437 -12.29210937 3.87515625 -13 4 C-13 3.34 -13 2.68 -13 2 C-4.57142857 -0.28571429 -4.57142857 -0.28571429 0 0 Z " fill="#B1A686" transform="translate(445,149)"/>
<path d="M0 0 C0.99 0.33 1.98 0.66 3 1 C-0.96 4.465 -0.96 4.465 -5 8 C-5.66 7.34 -6.32 6.68 -7 6 C-6.01 5.67 -5.02 5.34 -4 5 C-3.67 4.01 -3.34 3.02 -3 2 C-2.01 1.34 -1.02 0.68 0 0 Z " fill="#D7F6E9" transform="translate(179,58)"/>
<path d="M0 0 C1.33897583 0.95043374 2.67105427 1.91059147 4 2.875 C5.11375 3.67550781 5.11375 3.67550781 6.25 4.4921875 C6.8275 4.98976563 7.405 5.48734375 8 6 C8 6.66 8 7.32 8 8 C4.59428799 6.86476266 2.63259597 5.41914224 0 3 C0 2.01 0 1.02 0 0 Z " fill="#E1F9EF" transform="translate(182,324)"/>
<path d="M0 0 C0.66 0.99 1.32 1.98 2 3 C2.99 3.66 3.98 4.32 5 5 C3.02 5.99 1.04 6.98 -1 8 C-0.67 5.36 -0.34 2.72 0 0 Z " fill="#AFA48B" transform="translate(356,170)"/>
<path d="M0 0 C0.33 0 0.66 0 1 0 C1 2.64 1 5.28 1 8 C-0.98 8.99 -0.98 8.99 -3 10 C-2.01 6.7 -1.02 3.4 0 0 Z " fill="#D0EEE3" transform="translate(211,132)"/>
<path d="M0 0 C1.31471568 0.28151087 2.62675767 0.57553339 3.9375 0.875 C4.66839844 1.03742188 5.39929688 1.19984375 6.15234375 1.3671875 C8 2 8 2 9 4 C6 5 6 5 2.8125 3.5625 C1.884375 3.046875 0.95625 2.53125 0 2 C0 1.34 0 0.68 0 0 Z " fill="#E5FCF3" transform="translate(246,360)"/>
<path d="M0 0 C3.3 0.99 6.6 1.98 10 3 C8.02 3.99 8.02 3.99 6 5 C2.75 3.625 2.75 3.625 0 2 C0 1.34 0 0.68 0 0 Z " fill="#F8F3E7" transform="translate(320,210)"/>
<path d="M0 0 C1 4 1 4 -0.4375 6.75 C-1.2109375 7.86375 -1.2109375 7.86375 -2 9 C-2.99 8.67 -3.98 8.34 -5 8 C-3.35 5.36 -1.7 2.72 0 0 Z " fill="#CBECDD" transform="translate(227,103)"/>
<path d="M0 0 C1.27875 0.28875 2.5575 0.5775 3.875 0.875 C4.95394531 1.11863281 4.95394531 1.11863281 6.0546875 1.3671875 C8 2 8 2 10 4 C8.375 4.75 8.375 4.75 6 5 C2.75 3.125 2.75 3.125 0 1 C0 0.67 0 0.34 0 0 Z " fill="#DAF4EA" transform="translate(272,319)"/>
<path d="M0 0 C2.16874252 0.50603992 3.99967627 0.99983813 6 2 C5.67 3.32 5.34 4.64 5 6 C3.31237149 4.3545622 1.6459651 2.68711423 0 1 C0 0.67 0 0.34 0 0 Z " fill="#22764F" transform="translate(158,297)"/>
<path d="M0 0 C4.42857143 5.14285714 4.42857143 5.14285714 5 9 C3.0625 8.4375 3.0625 8.4375 1 7 C0.25 3.375 0.25 3.375 0 0 Z " fill="#2B7E58" transform="translate(216,260)"/>
<path d="M0 0 C3.36720387 1.39332574 4.9859524 2.9789286 7 6 C5.35 6 3.7 6 2 6 C2 5.34 2 4.68 2 4 C1.34 3.67 0.68 3.34 0 3 C0 2.01 0 1.02 0 0 Z " fill="#B3AA8D" transform="translate(361,208)"/>
<path d="M0 0 C0.33 0.99 0.66 1.98 1 3 C1.99 3.33 2.98 3.66 4 4 C5.1875 7.5625 5.1875 7.5625 6 11 C2.72713318 8.2180632 1.03572303 4.72045933 -1 1 C-0.67 0.67 -0.34 0.34 0 0 Z " fill="#B1A387" transform="translate(444,204)"/>
<path d="M0 0 C2.31 1.65 4.62 3.3 7 5 C6.67 5.66 6.34 6.32 6 7 C2.99390037 5.99796679 1.93823179 5.39971554 0 3 C0 2.01 0 1.02 0 0 Z " fill="#F2F1E0" transform="translate(375,112)"/>
<path d="M0 0 C0.66 0.33 1.32 0.66 2 1 C1.67 2.65 1.34 4.3 1 6 C-1.31 5.34 -3.62 4.68 -6 4 C-4 2.66666667 -2 1.33333333 0 0 Z " fill="#B3A68A" transform="translate(366,96)"/>
<path d="M0 0 C2.9719385 1.12451727 5.33440687 2.22293791 8 4 C7.67 4.99 7.34 5.98 7 7 C5.83040013 6.02433888 4.66438823 5.044375 3.5 4.0625 C2.8503125 3.51722656 2.200625 2.97195313 1.53125 2.41015625 C1.0259375 1.94480469 0.520625 1.47945313 0 1 C0 0.67 0 0.34 0 0 Z " fill="#31825D" transform="translate(168,310)"/>
<path d="M0 0 C3.465 1.485 3.465 1.485 7 3 C5.02 3.99 5.02 3.99 3 5 C1.68 4.01 0.36 3.02 -1 2 C-0.67 1.34 -0.34 0.68 0 0 Z " fill="#FAF5EB" transform="translate(457,242)"/>
<path d="M0 0 C0.66 0.33 1.32 0.66 2 1 C2.59355614 3.64860427 2.74209269 6.29197322 3 9 C2.01 9.495 2.01 9.495 1 10 C0.63720544 8.71073008 0.28503302 7.41846728 -0.0625 6.125 C-0.35833984 5.04605469 -0.35833984 5.04605469 -0.66015625 3.9453125 C-1 2 -1 2 0 0 Z " fill="#FAF3EA" transform="translate(372,216)"/>
<path d="M0 0 C4.95 0.99 4.95 0.99 10 2 C10 2.66 10 3.32 10 4 C5.38308839 3.47535095 3.90012114 2.92509086 0 0 Z " fill="#B4A98B" transform="translate(326,211)"/>
<path d="M0 0 C3.25061904 0.43341587 4.95502089 1.44377611 7 4 C7 4.66 7 5.32 7 6 C3.62496331 4.8141763 1.35277269 3.72426311 -1 1 C-0.67 0.67 -0.34 0.34 0 0 Z " fill="#BDB199" transform="translate(403,146)"/>
<path d="M0 0 C1.5 1.25 1.5 1.25 3 3 C3 4.32 3 5.64 3 7 C1.68 6.34 0.36 5.68 -1 5 C-0.67 3.35 -0.34 1.7 0 0 Z " fill="#B6AC93" transform="translate(381,111)"/>
<path d="M0 0 C3.3 0.33 6.6 0.66 10 1 C9.67 1.99 9.34 2.98 9 4 C6.03 3.01 3.06 2.02 0 1 C0 0.67 0 0.34 0 0 Z " fill="#D3F5E8" transform="translate(366,27)"/>
<path d="M0 0 C1.65 0.99 3.3 1.98 5 3 C4.67 3.99 4.34 4.98 4 6 C3.01 5.67 2.02 5.34 1 5 C1 4.01 1 3.02 1 2 C0.34 1.67 -0.32 1.34 -1 1 C-0.67 0.67 -0.34 0.34 0 0 Z " fill="#E6F7F0" transform="translate(267,313)"/>
<path d="M0 0 C1.70884005 1.62339805 3.37446717 3.29319053 5 5 C5 5.66 5 6.32 5 7 C4.01 7 3.02 7 2 7 C0 4 0 4 0 0 Z " fill="#29805D" transform="translate(230,282)"/>
<path d="M0 0 C0.99 0.66 1.98 1.32 3 2 C1.02 4.97 1.02 4.97 -1 8 C-1.93065133 5.39417629 -2.14917407 4.35801776 -1.0625 1.75 C-0.711875 1.1725 -0.36125 0.595 0 0 Z " fill="#B1A586" transform="translate(388,275)"/>
<path d="M0 0 C0.66 0.33 1.32 0.66 2 1 C0.6875 3.5 0.6875 3.5 -1 6 C-1.99 6 -2.98 6 -4 6 C-2.84826645 3.53199953 -1.95216435 1.95216435 0 0 Z " fill="#BBAF95" transform="translate(401,234)"/>
<path d="M0 0 C4.875 1.75 4.875 1.75 6 4 C5.01 5.485 5.01 5.485 4 7 C2.02 3.535 2.02 3.535 0 0 Z " fill="#F6F2E1" transform="translate(472,216)"/>
<path d="M0 0 C0.33 0.99 0.66 1.98 1 3 C-1.97 5.475 -1.97 5.475 -5 8 C-5.66 7.67 -6.32 7.34 -7 7 C-4.69 4.69 -2.38 2.38 0 0 Z " fill="#F1EAD6" transform="translate(367,168)"/>
<path d="M0 0 C0.66 0.33 1.32 0.66 2 1 C1.1875 3.4375 1.1875 3.4375 0 6 C-0.99 6.33 -1.98 6.66 -3 7 C-1.125 1.125 -1.125 1.125 0 0 Z " fill="#D7F2E4" transform="translate(221,113)"/>
<path d="M0 0 C0.33 0 0.66 0 1 0 C1 1.98 1 3.96 1 6 C-0.98 6.99 -0.98 6.99 -3 8 C-1.125 2.25 -1.125 2.25 0 0 Z " fill="#308462" transform="translate(143,106)"/>
<path d="M0 0 C0 0.99 0 1.98 0 3 C-1.98 3.66 -3.96 4.32 -6 5 C-6.66 4.34 -7.32 3.68 -8 3 C-2.25 0 -2.25 0 0 0 Z " fill="#DBF4EA" transform="translate(286,55)"/>
<path d="M0 0 C0.99 0.33 1.98 0.66 3 1 C0.36 2.98 -2.28 4.96 -5 7 C-4.67 5.68 -4.34 4.36 -4 3 C-2.68 2.67 -1.36 2.34 0 2 C0 1.34 0 0.68 0 0 Z " fill="#D5F5E6" transform="translate(187,51)"/>
</svg>
